<svg fill="#ffffff" id="Layer_1" enable-background="new 0 0 512 512" height="512" viewBox="0 0 512 512" width="512" xmlns="http://www.w3.org/2000/svg"><g><path d="m256 0c-60.654 0-110 49.346-110 110v240c0 16.542 13.458 30 30 30h50v102c0 16.542 13.458 30 30 30s30-13.458 30-30v-102h50c16.542 0 30-13.458 30-30v-240c0-60.654-49.346-110-110-110zm10 482c0 5.514-4.486 10-10 10s-10-4.486-10-10v-102h20zm70-122h-160c-5.514 0-10-4.486-10-10v-122.698c2.944 1.706 6.353 2.698 10 2.698 11.046 0 20-8.954 20-20v-40c0-11.046 8.954-20 20-20s20 8.954 20 20v40c0 11.046 8.954 20 20 20s20-8.954 20-20v-80c0-11.046 8.954-20 20-20s20 8.954 20 20v40c0 11.046 8.954 20 20 20 3.647 0 7.056-.992 10-2.698v162.698c0 5.514-4.486 10-10 10z"/><circle cx="316" cy="330" r="10"/><circle cx="296" cy="310" r="5"/></g></svg>