<?xml version="1.0" encoding="utf-8"?>
<!DOCTYPE svg PUBLIC "-//W3C//DTD SVG 20010904//EN" "http://www.w3.org/TR/2001/REC-SVG-20010904/DTD/svg10.dtd">
<svg version="1.0" xmlns="http://www.w3.org/2000/svg" width="512px" height="512px" viewBox="0 0 512 512" preserveAspectRatio="xMidYMid meet">
 <g fill="#e4e7e7">
  <path d="M316.7 425.3 c-6.5 -35.7 -11.7 -65.5 -11.7 -66.5 0 -0.9 2.4 -3 5.8 -4.8 9 -5.1 18.1 -12.2 25.8 -20.2 6.9 -7.2 17.5 -22.1 18.9 -26.5 0.4 -1.5 1.4 -2.3 2.8 -2.3 1.2 0 33.8 5.7 72.3 12.7 l70.2 12.7 -3.4 9.7 c-12.3 35.3 -31.7 66.4 -59.1 94.9 -14.8 15.4 -28.1 24.9 -50.4 35.9 -20.2 10.1 -46.3 19.1 -55 19.1 l-4.5 0 -11.7 -64.7z"/>
  <path d="M165.5 476.2 c-58.9 -25.5 -107.6 -74.6 -132.9 -134 -3.1 -7.3 -4.7 -15.2 -3.1 -15.2 0.3 0 27.8 -4.9 61 -11 33.2 -6.1 61.3 -11 62.4 -11 1.3 0 2.9 1.8 5.1 5.8 9.7 17.3 25.9 33.4 43.3 43.2 3.9 2.2 5.7 3.8 5.7 5.1 0 2 -20.7 117 -21.6 120.2 -1 3.2 -7.9 2.1 -19.9 -3.1z"/>
  <path d="M87.5 195.6 c-33.5 -6.2 -62.7 -11.6 -64.7 -12 -3.5 -0.6 -3.8 -1 -3.8 -4 0 -4.6 5.1 -22.1 10.3 -35.7 10.6 -27.5 22 -44.4 45.6 -67.9 28.3 -28.2 60.8 -48.9 96.7 -61.3 l10 -3.5 12.2 67.7 c6.8 37.2 12.3 69.5 12.2 71.9 0 2.9 -0.4 4.2 -1.4 4.2 -0.7 0 -1.9 0.7 -2.6 1.5 -0.7 0.9 -5.4 4.4 -10.4 7.9 -13.7 9.6 -25.7 22.7 -33.6 36.9 -2.9 5.1 -3.5 5.7 -6.3 5.6 -1.8 -0.1 -30.6 -5.2 -64.2 -11.3z"/>
  <path d="M372 201.3 c0 -3.2 -10.4 -21.1 -17 -29.4 -10.4 -13.2 -22.3 -22.6 -38.3 -30.6 -7.7 -3.7 -7.7 -3.7 -7.7 -7.8 0 -2.2 4.8 -30.6 10.7 -63.1 l10.7 -59.2 10 3.5 c72.3 25.1 131.8 84.6 156.9 156.9 l3.5 10 -59.2 10.7 c-32.5 5.9 -61.5 10.7 -64.3 10.7 -4.4 0 -5.3 -0.3 -5.3 -1.7z"/>
 </g>
 <g fill="#e2574c">
  <path d="M240.7 511.3 c-1.5 -1.5 -0.5 -2.3 2.8 -2.3 2.4 0 3.5 0.5 3.5 1.5 0 1.5 -5 2.2 -6.3 0.8z"/>
  <path d="M264 510.5 c0 -1.1 1.2 -1.5 4.5 -1.5 4.5 0 6 1.2 2.9 2.4 -3.1 1.2 -7.4 0.7 -7.4 -0.9z"/>
  <path d="M276 508.6 c0 -2.4 0.3 -2.6 4.5 -2.6 3.2 0 4.7 0.5 5.2 1.5 0.8 2.2 0 2.7 -5.2 3.2 -4.3 0.5 -4.5 0.5 -4.5 -2.1z"/>
  <path d="M238.3 496.4 c-14.5 -1.7 -30.9 -5.4 -46.7 -10.5 -10.4 -3.3 -12.6 -4.4 -12.6 -6 0 -1 0.6 -1.9 1.4 -1.9 0.8 0 1.7 -0.8 2 -1.7 0.3 -1 5.3 -28.3 11.2 -60.8 5.8 -32.4 10.8 -59.1 10.9 -59.3 0.2 -0.2 3.6 1.1 7.5 2.8 4 1.8 11.6 4.3 16.9 5.8 8.6 2.3 11.4 2.6 27.1 2.6 15.7 0 18.5 -0.3 27.1 -2.6 5.3 -1.5 12.9 -4 16.9 -5.8 3.9 -1.7 7.3 -3 7.5 -2.8 0.1 0.2 5.6 29.7 12.1 65.6 10.4 57.4 12.1 65.2 13.6 65.2 1.2 0 1.8 0.8 1.8 2.4 0 2.1 -0.5 2.4 -5.7 2.9 -3.2 0.3 -9.4 1.3 -13.8 2.1 -21 3.8 -55 4.7 -77.2 2z"/>
  <path d="M429 321 c-47.8 -8.8 -69.9 -12.4 -70.7 -11.8 -1 0.8 -1.3 0.3 -1.3 -2.1 0 -2.1 1.4 -5.3 4.1 -9.3 13.5 -19.8 20.8 -47.2 18.1 -68.1 -0.6 -5.1 -2.3 -13.2 -3.7 -18 -2.7 -9.4 -3.1 -13.2 -1.5 -14.2 0.6 -0.3 1 0.1 1 0.9 0 1 0.9 1.6 2.5 1.6 2.4 0 116.9 -20.5 120.6 -21.6 1.8 -0.5 1.6 -0.9 5.4 13.6 5.7 22.2 7.8 39.4 7.8 64 0 24.6 -2.1 41.8 -7.8 64 -3.4 13.3 -3.7 14 -4.4 13.9 -0.3 -0.1 -31.9 -5.9 -70.1 -12.9z"/>
  <path d="M23.7 317.7 c-9.2 -29.6 -12.2 -52.2 -11.4 -86.1 0.5 -20.4 1.6 -31.6 4.8 -46.1 1.7 -8.1 1.9 -8.5 3.9 -8.5 1.2 0 1.7 0.5 1.4 1.4 -0.3 0.8 0.4 1.6 1.8 1.9 1.3 0.3 31.3 5.8 66.8 12.3 35.5 6.4 64.6 11.8 64.8 11.9 0.2 0.2 -1.1 3.6 -2.8 7.5 -1.8 4 -4.3 11.6 -5.8 16.9 -2.3 8.6 -2.6 11.4 -2.6 27.1 0 15.7 0.3 18.5 2.6 27.1 1.5 5.3 4 12.9 5.8 16.9 1.7 3.9 3 7.3 2.8 7.5 -0.2 0.1 -26.8 5.1 -59.3 11 -32.4 5.9 -60.3 10.9 -61.8 11.2 -1.8 0.4 -2.6 1 -2.3 1.9 0.4 0.9 -0.2 1.4 -1.7 1.4 -2 0 -2.7 -1.6 -7 -15.3z"/>
  <path d="M10.3 327.5 c-1.1 -3.3 -1 -3.5 1.3 -3.5 2.1 0 2.4 0.5 2.4 3.5 0 2.2 -0.5 3.5 -1.3 3.5 -0.8 0 -1.8 -1.6 -2.4 -3.5z"/>
  <path d="M0.6 271.8 c-1.2 -4.5 -0.7 -6.8 1.4 -6.8 1.7 0 2 0.7 2 4.5 0 4.9 -2.3 6.4 -3.4 2.3z"/>
  <path d="M0 244.6 c0 -3.5 1 -5.6 2.6 -5.6 1 0 1.4 1.2 1.4 4 0 3.3 -0.3 4 -2 4 -1.4 0 -2 -0.7 -2 -2.4z"/>
  <path d="M1 231.3 c0 -3.4 1.2 -6.3 2.6 -6.3 1 0 1.4 1.3 1.4 4 0 3.3 -0.3 4 -2 4 -1.2 0 -2 -0.7 -2 -1.7z"/>
  <path d="M3 217.3 c0 -3.4 1.2 -6.3 2.6 -6.3 1 0 1.4 1.3 1.4 4 0 3.3 -0.3 4 -2 4 -1.2 0 -2 -0.7 -2 -1.7z"/>
  <path d="M200 153 c0 -0.5 0.7 -1 1.5 -1 0.8 0 1.5 -0.8 1.5 -1.8 0 -1.6 -23.3 -131 -24.5 -135.8 -0.5 -2.4 -1.4 -2.1 13.5 -5.9 22.2 -5.7 39.4 -7.8 64 -7.8 24.6 0 41.8 2.1 64 7.8 14 3.6 14.1 3.7 13.7 4.9 -0.2 0.6 -5.3 28 -11.2 61 -10 54.8 -10.7 59.9 -9.2 60.8 0.9 0.5 1.7 1.3 1.7 1.8 0 1.7 -5.4 1.1 -12.8 -1.4 -25.7 -8.8 -51.3 -6.7 -77.7 6.4 -6.6 3.2 -13.5 7.3 -15.3 9 -3.2 2.9 -9.2 4.2 -9.2 2z"/>
 </g>
 <g fill="#cdcfcf">
  <path d="M212.8 508.3 c-3.3 -0.8 -2 -3.3 1.7 -3.3 2.8 0 3.5 0.4 3.5 2 0 2 -1.4 2.3 -5.2 1.3z"/>
  <path d="M305 505 c0 -1.6 0.7 -2 3.5 -2 4 0 4.9 2.4 1.3 3.4 -3.8 1 -4.8 0.7 -4.8 -1.4z"/>
  <path d="M171.5 497.6 c-56.1 -20.5 -101.1 -56.6 -132.9 -106.6 -8.6 -13.5 -22.5 -43.7 -27 -58.6 -0.6 -1.9 0.1 -2.2 9 -3.7 5.3 -1 9.8 -1.6 9.9 -1.5 0.1 0.2 1.8 4.4 3.9 9.3 19.6 46.9 52.8 87.2 94.6 115 14.4 9.7 31.4 18.7 45 24 5.2 2.1 9.9 4.1 10.3 4.5 0.9 0.8 -2.2 21 -3.2 21 -0.3 -0.1 -4.6 -1.6 -9.6 -3.4z"/>
  <path d="M329.6 497.3 c-1 -6.6 -0.8 -9.6 0.8 -9 0.8 0.3 1.6 0.3 1.8 -0.1 0.2 -0.4 4.6 -2 9.8 -3.5 30.4 -9 60.4 -24 84.1 -42.3 5.6 -4.3 7.9 -5.3 7.9 -3.5 0 1.5 -12.8 12.8 -24.5 21.6 -14.1 10.6 -26.7 18.3 -43 26.1 -10.2 4.9 -33.9 14.4 -35.9 14.4 -0.2 0 -0.6 -1.7 -1 -3.7z"/>
  <path d="M351.4 315 c1.5 -2.5 3.2 -5.7 3.8 -7.2 0.7 -2 1.7 -2.8 3.4 -2.8 3.1 0 2.7 0.7 -4.5 8.6 l-5.4 5.9 2.7 -4.5z"/>
  <path d="M356 205.7 c0 -3 -12.9 -20.8 -20.9 -28.8 -8 -8 -25.8 -20.9 -28.8 -20.9 -1.7 0 -1.6 -2.3 0.3 -13.1 1.1 -5.9 2.1 -8.9 3 -8.9 0.7 0 6.2 2.5 12.2 5.5 16.4 8.4 28.2 18.5 40.4 34.8 4.2 5.5 12.8 21.8 12.8 24.1 0 0.9 0.4 1.6 0.8 1.6 0.4 0 0.8 0.9 0.9 2 0.1 1.1 0 2 -0.2 2 -0.2 0 -3.9 0.7 -8.2 1.5 -9.6 1.8 -12.3 1.9 -12.3 0.2z"/>
  <path d="M13.7 182.3 c-3.2 -0.5 -3.3 0.3 2 -14.3 4.6 -12.5 14.5 -33.2 21.7 -45 6.6 -10.7 20.1 -29 27.1 -36.5 l4.6 -5 -4.4 6 c-17.5 23.8 -32.4 54.5 -40.2 83 -3.5 13 -3.5 13 -10.8 11.8z"/>
  <path d="M190.4 162.8 c-0.8 -1.2 9.2 -10.7 11.4 -10.8 0.7 0 1.5 -0.7 1.8 -1.5 1.2 -3 3.4 -1.6 3.4 2 0 2.1 -0.5 3.5 -1.2 3.5 -0.7 0 -4.1 1.8 -7.6 4 -7.1 4.5 -6.8 4.4 -7.8 2.8z"/>
 </g>
 <g fill="#cb4e44">
  <path d="M232.7 510.9 c-12.8 -1.2 -30.7 -4.5 -43 -7.8 -6 -1.6 -11 -3.1 -11.2 -3.3 -0.3 -0.3 3.2 -19.9 3.8 -20.4 0.2 -0.2 5.8 1.4 12.5 3.6 28.6 9.2 52.3 12.5 82.2 11.7 18.9 -0.6 31.8 -2 46.3 -5.3 3.8 -0.9 7.3 -1.2 7.7 -0.8 1.5 1.6 2.9 10.8 1.8 11.5 -1.7 1.1 -25.7 6.8 -35.8 8.5 -5.2 0.9 -11.4 1.3 -13.7 1 -2.5 -0.3 -4.3 -0.1 -4.5 0.5 -0.5 1.4 -34 1.9 -46.1 0.8z"/>
  <path d="M11.5 331.3 c-0.4 -1.5 -1.1 -3.9 -1.5 -5.3 -0.5 -1.4 -1.9 -6.3 -3 -11 -7.1 -28.1 -8.6 -65.4 -3.9 -97.5 1.2 -8.7 7.5 -36.3 8.7 -38.2 0.5 -0.9 2 -0.9 5.5 -0.1 3.7 0.8 4.7 1.3 4.3 2.6 -5.5 20.3 -8.1 56.9 -5.7 80.8 1.8 17.4 5.6 35.5 10.7 51.5 2.5 7.8 4.3 14.7 4.1 15.3 -0.3 0.7 -4 1.9 -8.3 2.6 -4.3 0.6 -8.3 1.4 -9 1.7 -0.8 0.3 -1.6 -0.6 -1.9 -2.4z"/>
  <path d="M358 301.8 c13.1 -28.3 12.9 -65.2 -0.6 -93 -0.9 -2.1 -1.6 -4 -1.3 -4.2 1.1 -1.2 20.6 -4.1 20.6 -3.2 0.1 0.6 1.3 5.6 2.8 11.1 5.1 19.2 4.3 41.5 -2.1 61.2 -4.8 14.7 -16.3 34.3 -20.1 34.3 -2.2 0 -2.2 0 0.7 -6.2z"/>
  <path d="M203.7 153.4 c-0.7 -3.9 3.4 -7.3 17.8 -14.4 21.6 -10.7 44.1 -14.3 66.3 -10.6 10.8 1.8 23.8 5.8 23.6 7.2 -1.4 9.5 -3.8 20.4 -4.5 20.4 -0.6 0 -2.6 -0.8 -4.7 -1.9 -4.7 -2.3 -17.8 -6.6 -25.7 -8.3 -3.7 -0.8 -12 -1.2 -21.5 -1.2 -16.8 0.2 -27.5 2.2 -41.1 7.9 -9.7 4 -9.6 4 -10.2 0.9z"/>
 </g>
</svg>