<svg fill="#ffffff" id="Layer_5" enable-background="new 0 0 58 58" height="512" viewBox="0 0 58 58" width="512" xmlns="http://www.w3.org/2000/svg"><g><path d="m46.878 21.759c-.737.771-1.77 1.241-2.878 1.241-2.206 0-4-1.794-4-4 0-.909.319-1.766.861-2.456-1.04-.348-2.148-.544-3.302-.544-1.963 0-3.559 1.597-3.559 3.559v.589c0 .765.253 1.523.712 2.135.809 1.078 1.482 2.235 2.023 3.442.657-.46 1.442-.725 2.265-.725 2.206 0 4 1.794 4 4s-1.794 4-4 4c-.231 0-.458-.024-.683-.064.018 1.687-.199 3.384-.663 5.038l.395.474 5.044-3.151c3.073-1.922 4.907-5.233 4.907-8.856 0-1.684-.41-3.272-1.122-4.682z"/><path d="m52 26.441c0-7.962-6.479-14.441-14.441-14.441-4.168 0-7.559 3.391-7.559 7.559v.589c0 1.625.537 3.235 1.512 4.535 2.891 3.854 3.607 8.85 1.915 13.361l-.286.763 4.069 4.883 8.003-5.001c4.25-2.658 6.787-7.236 6.787-12.248zm-7.847 10.551-6.524 4.077-2.204-2.646.164-.521c1.542-4.906.616-10.297-2.477-14.421-.717-.954-1.112-2.138-1.112-3.334v-.589c0-3.065 2.494-5.558 5.559-5.558 6.86 0 12.441 5.581 12.441 12.441 0 4.318-2.186 8.262-5.847 10.551z"/><path d="m27.121 28h.443c.425 0 .839.085 1.23.253l2.967 1.271c-.396-1.263-.991-2.473-1.805-3.574-.336.03-.655.05-.956.05-3.811 0-7.206-1.792-9.405-4.57-1.173.371-2.377.57-3.595.57-1.6 0-3.124-.321-4.521-.891-.312.577-.479 1.218-.479 1.891v1h-1c-2.206 0-4 1.794-4 4 0 1.614.961 3.062 2.449 3.688l.516.217.085.553c.227 1.473 1.468 2.542 2.95 2.542.602 0 1.182-.178 1.679-.514l1.075-.728.429 1.226c.332.948 1.106 1.645 2.035 1.902.178-.506.456-.974.846-1.365 1.041-1.04 2.623-1.296 3.937-.639l4.104 2.052c.393.199.895-.116.895-.552 0-.624-.243-1.211-.685-1.652l-1.401-1.401c-.581-.582-.914-1.386-.914-2.208 0-1.721 1.4-3.121 3.121-3.121zm-14.121-2c-.551 0-1 .448-1 1v1h-1c-.551 0-1 .448-1 1h-2c0-1.352.898-2.497 2.129-2.871.374-1.231 1.519-2.129 2.871-2.129zm5 5c-1.657 0-3-1.343-3-3s1.343-3 3-3 3 1.343 3 3-1.343 3-3 3z"/><path d="m19.653 39.99 5.682 4.261 5.805-5.805.414-1.105c.664-1.77.875-3.624.694-5.433l-4.241-1.818c-.141-.06-.29-.09-.443-.09h-.443c-.618 0-1.121.503-1.121 1.121 0 .295.12.584.328.793l1.402 1.401c.819.819 1.27 1.908 1.27 3.066 0 1.444-1.174 2.619-2.618 2.619-.404 0-.809-.096-1.171-.276l-4.104-2.052c-.545-.273-1.198-.166-1.628.264-.309.308-.479.718-.479 1.155v.592c0 .511.244 1.001.653 1.307z"/><path d="m40.892 46.203c1.296-.862 3.035-.691 4.135.41l.223.223c.414.414 1.087.414 1.501 0l.177-.178c.396-.396.417-1.032.05-1.45l-2.978-3.404-6.397 3.998-1.934 1.741 1.252 2.816c.149.337.423.591.77.715.347.125.72.103 1.05-.063l.54-.27c.283-.142.421-.476.321-.776-.467-1.397.064-2.944 1.29-3.762z"/><path d="m26.635 52.983 8.981-8.082-3.683-4.42-8.913 8.913c.187 1.902 1.71 3.417 3.615 3.589z"/><path d="m16 20c.821 0 1.635-.112 2.435-.316-.32-.592-.583-1.217-.801-1.863-.54.114-1.086.179-1.634.179-4.411 0-8-3.589-8-8s3.589-8 8-8c2.172 0 4.253.907 5.751 2.459.541-.412 1.113-.782 1.719-1.099-1.887-2.122-4.601-3.36-7.47-3.36-5.514 0-10 4.486-10 10s4.486 10 10 10z"/><path d="m44 21c.73 0 1.376-.423 1.721-1.052-.807-1.012-1.798-1.868-2.922-2.523-.49.373-.799.947-.799 1.575 0 1.103.897 2 2 2z"/><path d="m39 31c1.103 0 2-.897 2-2s-.897-2-2-2c-.587 0-1.129.277-1.506.725.312 1 .539 2.025.674 3.062.264.126.541.213.832.213z"/><path d="m10.09 9h4.91v-4.91c-2.507.424-4.486 2.403-4.91 4.91z"/><path d="m30 8.09v5.64c1.033-1.337 2.407-2.393 3.997-3.034-.916-1.385-2.358-2.33-3.997-2.606z"/><path d="m10.09 11c.478 2.833 2.942 5 5.91 5 .388 0 .776-.051 1.161-.129-.096-.611-.161-1.233-.161-1.871 0-1.038.146-2.039.395-3z"/><path d="m28 19.91v-.351-4.559h-4.91c.424 2.507 2.403 4.486 4.91 4.91z"/><path d="m20.265 5.798c-.888-.909-2.022-1.498-3.265-1.706v4.908h1.105c.546-1.184 1.278-2.263 2.16-3.202z"/><path d="m29 4c-5.514 0-10 4.486-10 10 0 5.451 4.386 9.89 9.814 9.991-.286-.651-.495-1.334-.631-2.032-4.029-.411-7.183-3.824-7.183-7.959 0-4.411 3.589-8 8-8 2.939 0 5.59 1.607 6.988 4.14.512-.085 1.035-.14 1.571-.14.203 0 .401.023.603.031-1.563-3.611-5.144-6.031-9.162-6.031z"/><path d="m28 8.09c-2.507.423-4.486 2.403-4.91 4.91h4.91z"/><path d="m29 0c-1.889 0-3.774.195-5.631.563.742.579 1.416 1.247 2.012 1.997 1.143-.362 2.358-.56 3.619-.56 5.193 0 9.777 3.367 11.382 8.26 7.723 1.345 13.618 8.08 13.618 16.181 0 5.706-2.889 10.918-7.727 13.942l-.555.347 2.765 3.16c1.059 1.208.997 3.045-.14 4.181l-.176.177c-1.195 1.194-3.136 1.196-4.331.002l-.223-.223c-.428-.428-1.105-.494-1.612-.16-.477.318-.684.921-.502 1.466.413 1.239-.157 2.614-1.324 3.198l-.54.27c-.472.235-.979.354-1.488.354-.38 0-.761-.065-1.131-.198-.866-.311-1.548-.944-1.922-1.785l-.987-2.222-6.723 6.05h-.384c-3.309 0-6-2.691-6-6v-.414l2.906-2.906-5.453-4.09c-.853-.639-1.366-1.638-1.429-2.697-1.333-.27-2.506-1.071-3.234-2.223-.567.218-1.172.33-1.79.33-2.292 0-4.237-1.526-4.814-3.7-1.952-1.034-3.186-3.061-3.186-5.3 0-2.993 2.203-5.481 5.073-5.929.103-.656.326-1.286.636-1.872-2.464-1.526-4.341-3.909-5.195-6.739-2.96 4.641-4.514 9.967-4.514 15.54 0 15.99 13.009 29 29 29s29-13.01 29-29-13.009-29-29-29zm-14.539 51.755c-5.615-3.595-9.689-9.095-11.471-15.486l1.927-.537c1.65 5.918 5.423 11.01 10.623 14.34zm4.137 2.168c-.692-.289-1.385-.613-2.06-.965l.923-1.773c.625.325 1.267.625 1.907.893z"/></g></svg>