<?xml version="1.0" encoding="iso-8859-1"?>
<!-- Generator: Adobe Illustrator 19.0.0, SVG Export Plug-In . SVG Version: 6.00 Build 0)  -->
<svg fill="#ffffff" version="1.1" id="Capa_1" xmlns="http://www.w3.org/2000/svg" xmlns:xlink="http://www.w3.org/1999/xlink" x="0px" y="0px"
	 viewBox="0 0 512 512" style="enable-background:new 0 0 512 512;" xml:space="preserve">
<g>
	<g>
		<path d="M501.333,192.014h-23.23c-2.961-3.849-6.203-7.438-10.04-10.438c0.01-0.385,0.021-0.771,0.021-1.156
			c0-22.01-11.865-42.281-30.458-52.333c-6.792-25.271-28.552-42.74-53.625-42.74c-4.035,0-7.932,0.603-11.747,1.467
			c-1.832-10.97-6.549-21.056-14.273-28.78c-18.281-18.271-47.729-20.458-72.198-5.531c-21.094-5.74-45.271,1.333-62.208,18.271
			c-0.469,0.479-0.917,0.948-1.344,1.427c-18.792-1.771-38.385,5.51-52.708,19.833c-3.777,3.777-6.99,8.017-9.785,12.564
			c-15.471-10.165-34.046-13.982-50.85-9.428c-24.458-14.938-53.917-12.74-72.198,5.531c-18.281,18.281-20.458,47.729-5.531,72.198
			c-1.673,6.15-1.953,12.602-1.516,19.115H10.667C4.771,192.014,0,196.785,0,202.681v10.667
			C0,318.958,64.303,409.81,155.798,448.884c-3.801,1.63-6.465,5.396-6.465,9.797c0,5.896,4.771,10.667,10.667,10.667h192
			c5.896,0,10.667-4.771,10.667-10.667c0-4.401-2.664-8.167-6.465-9.797C447.697,409.81,512,318.958,512,213.348v-10.667
			C512,196.785,507.229,192.014,501.333,192.014z M223.406,188.587c-0.212,1.147-0.083,2.284-0.06,3.427h-52.68v-32
			c0-5.896-4.771-10.667-10.667-10.667s-10.667,4.771-10.667,10.667v32h-6.25L128,176.931v-38.25
			c0-5.896-4.771-10.667-10.667-10.667c-5.896,0-10.667,4.771-10.667,10.667v16.917l-24.458-24.458
			c-4.167-4.167-10.917-4.167-15.083,0c-4.167,4.167-4.167,10.917,0,15.083l42.654,42.654l0.026,0.026l3.112,3.112H51.087
			c-0.525-5.115-0.427-10.161,1.038-14.833c1.49-4.76,0.729-9.979-2.083-14.323c-10.479-16.219-9.76-35.573,1.729-47.073
			c11.5-11.479,30.844-12.198,47.063-1.74c4.344,2.813,9.552,3.573,14.344,2.094c14.083-4.406,30.875,0.427,44.135,13.854
			c3.917,4.656,9.979,6.99,15.729,6.281c13.042-1.771,26.823,3.313,37.021,13.51C220.75,160.473,225.865,175.337,223.406,188.587z
			 M299.938,181.577c-3.828,2.983-7.076,6.578-10.04,10.438h-23.23c5.896,0,10.667-4.771,10.667-10.667
			c0-5.896-4.771-10.667-10.667-10.667H249.75l21.333-21.333h27.583c5.896,0,10.667-4.771,10.667-10.667
			s-4.771-10.667-10.667-10.667h-6.25l24.458-24.458c4.167-4.167,4.167-10.917,0-15.083c-4.167-4.167-10.917-4.167-15.083,0
			l-24.458,24.458v-6.25c0-5.896-4.771-10.667-10.667-10.667c-5.896,0-10.667,4.771-10.667,10.667v27.583l-18.275,18.275
			c-1.03-2.001-1.82-4.077-3.059-5.994v-29.198c0-5.896-4.771-10.667-10.667-10.667s-10.667,4.771-10.667,10.667v7.865
			c-10.609-6.797-22.732-10.128-34.798-10.208c1.806-2.809,3.719-5.535,6.069-7.885c10.219-10.198,24.01-15.198,37.01-13.521
			c5.698,0.813,11.844-1.604,17.094-7.792c11.917-11.927,28.729-16.771,42.792-12.333c4.75,1.479,10,0.729,14.323-2.083
			c16.229-10.469,35.594-9.729,47.073,1.729c5.954,5.954,8.911,14.086,8.901,23.135c-10.116,7.568-17.859,18.579-21.422,31.833
			c-18.583,10.031-30.458,30.302-30.458,52.333C299.917,180.806,299.927,181.191,299.938,181.577z M394.667,192.014v-4.958
			l27.25-18.167c4.906-3.271,6.229-9.885,2.958-14.792c-3.26-4.906-9.885-6.229-14.792-2.958l-15.417,10.276v-22.734
			c0-5.896-4.771-10.667-10.667-10.667c-5.896,0-10.667,4.771-10.667,10.667v22.734l-15.417-10.276
			c-4.938-3.271-11.531-1.948-14.792,2.958c-3.271,4.906-1.948,11.521,2.958,14.792l27.25,18.167v4.958h-54.313
			c1.73-3.156,2.634-7,2.229-11.594c0-14.729,8.063-28.167,20.5-34.198c4.49-2.146,7.719-6.219,8.875-11.177
			c3.865-16.698,17.583-28.365,33.375-28.365c15.792,0,29.51,11.667,33.385,28.375c1.146,4.948,4.375,9.021,8.823,11.146
			c12.479,6.052,20.542,19.49,20.438,35.885c-0.342,3.602,0.764,6.936,2.503,9.927H394.667z"/>
	</g>
</g>
<g>
</g>
<g>
</g>
<g>
</g>
<g>
</g>
<g>
</g>
<g>
</g>
<g>
</g>
<g>
</g>
<g>
</g>
<g>
</g>
<g>
</g>
<g>
</g>
<g>
</g>
<g>
</g>
<g>
</g>
</svg>
