<svg fill="#ffffff" id="Capa_1" enable-background="new 0 0 512 512" height="512" viewBox="0 0 512 512" width="512" xmlns="http://www.w3.org/2000/svg"><g><g><path d="m147.971 68.639c15.619-5.929 32.032-8.935 48.782-8.935 2.814 0 5.613.094 8.398.261-3.562-7.489-8.389-14.511-14.516-20.713-17.996-18.22-43.193-25.797-67.648-20.859-14.67-13.744-35.171-17.588-53.116-11.557l65.694 66.512z"/><path d="m239.097 160.264c11.219-4.05 22.968-6.104 34.92-6.104 7.631 0 15.131.83 22.403 2.441-5.267-12.677-12.975-24.553-23.159-34.863-30.942-31.327-76.115-39.676-114.644-25.051l67.444 68.283z"/><g><path d="m493.359 333.695c-16.319-16.522-39.646-22.34-60.87-16.875-.234 10.936-2.168 21.911-5.896 32.497l-4.851 13.771 69.235 70.097c-.258-1.672-.606-3.333-1.067-4.972 1.186-1.037 2.336-2.119 3.449-3.246 24.854-25.164 24.855-66.108 0-91.272z"/></g><path d="m381.142 261.854c-1.283-1.3-2.603-2.54-3.956-3.723.047 11.822-1.874 23.729-5.908 35.181l-4.851 13.771 31.87 32.267c9.219-26.173 3.507-56.576-17.155-77.496z"/><path d="m342.982 283.347c9.219-26.173 3.507-56.576-17.155-77.496s-50.691-26.702-76.543-17.369z"/></g><path d="m501.366 486.394-476.074-482c-4.237-4.29-10.609-5.574-16.146-3.252-5.536 2.322-9.145 7.791-9.145 13.859v445.589c0 13.733 5.281 26.643 14.873 36.354 9.591 9.71 22.342 15.058 35.906 15.057h440.11c5.992 0 11.395-3.654 13.688-9.259 2.293-5.606 1.025-12.058-3.212-16.348zm-439.058-313.248 11.821-11.968c5.786-5.858 15.167-5.858 20.952 0 5.786 5.858 5.786 15.355 0 21.213l-11.821 11.968c-5.786 5.858-15.167 5.858-20.952 0-5.786-5.857-5.786-15.355 0-21.213zm-2.096 86.974 55.821-56.516c5.786-5.858 15.167-5.858 20.952 0 5.786 5.858 5.786 15.355 0 21.213l-55.821 56.516c-5.786 5.858-15.167 5.858-20.952 0-5.785-5.857-5.785-15.355 0-21.213zm2.851 81.967 94.875-96.056c5.786-5.858 15.167-5.858 20.952 0 5.786 5.858 5.786 15.355 0 21.213l-94.874 96.056c-5.786 5.858-15.167 5.858-20.952 0-5.786-5.858-5.786-15.355-.001-21.213zm.699 105.359c-5.786-5.858-5.786-15.355 0-21.213l136.081-137.775c5.786-5.858 15.167-5.858 20.952 0 5.786 5.858 5.786 15.355 0 21.213l-136.081 137.775c-5.786 5.858-15.166 5.858-20.952 0zm83.111.707c-5.786-5.858-5.786-15.355 0-21.213l94.875-96.056c5.786-5.858 15.167-5.858 20.952 0 5.786 5.858 5.786 15.355 0 21.213l-94.875 96.056c-5.785 5.858-15.166 5.858-20.952 0zm157.732-53.63-55.821 56.516c-5.786 5.858-15.167 5.858-20.952 0-5.786-5.858-5.786-15.355 0-21.213l55.821-56.516c5.786-5.858 15.167-5.858 20.952 0 5.786 5.858 5.786 15.355 0 21.213zm41.905 42.427-11.821 11.969c-5.786 5.858-15.167 5.858-20.952 0-5.786-5.858-5.786-15.355 0-21.213l11.821-11.968c5.786-5.858 15.167-5.858 20.952 0 5.786 5.856 5.786 15.354 0 21.212z"/></g></svg>