<svg fill="#ffffff" height="512pt" viewBox="0 -31 512 512" width="512pt" xmlns="http://www.w3.org/2000/svg"><path d="m377 300h-241c-59.914062 0-111.238281-39.488281-128.832031-93.613281-4.320313 10.625-7.167969 21.882812-7.167969 33.613281 0 49.628906 40.371094 90 90 90h332c49.628906 0 90-40.371094 90-90 0-11.730469-2.847656-22.988281-7.167969-33.613281-17.59375 54.125-67.917969 93.613281-127.832031 93.613281zm0 0"/><path d="m9.769531 328.59375c16.617188 36.125 52.933594 61.40625 95.230469 61.40625 27.507812 0 53.9375-11.304688 73.269531-30h-88.269531c-30.949219 0-58.925781-12.097656-80.230469-31.40625zm0 0"/><path d="m502.230469 328.59375c-21.304688 19.308594-49.28125 31.40625-80.230469 31.40625h-88.269531c19.332031 18.695312 45.761719 30 73.269531 30 42.296875 0 78.613281-25.28125 95.230469-61.40625zm0 0"/><path d="m328.792969 360h-145.585938c19.1875 18.59375 44.925781 30 72.792969 30s53.605469-11.40625 72.792969-30zm0 0"/><path d="m105 420c-18.65625 0-36.433594-3.8125-52.613281-10.6875 19.371093 24.710938 50.371093 40.6875 83.613281 40.6875h241c33.242188 0 63.242188-15.976562 82.613281-40.6875-16.179687 6.875-33.957031 10.6875-52.613281 10.6875-27.230469 0-54.210938-8.277344-76.117188-22.980469-21.726562 14.519531-47.5625 22.980469-74.882812 22.980469s-53.15625-8.460938-74.882812-22.976562c-21.910157 14.699218-48.886719 22.976562-76.117188 22.976562zm0 0"/><path d="m136 60c-57.890625 0-106 47.109375-106 105s48.109375 105 106 105h241c57.890625 0 105-47.109375 105-105s-47.109375-105-105-105c-41.351562 0-76 33.648438-76 75 0 8.289062-6.710938 15-15 15s-15-6.710938-15-15c0-25.433594 9.457031-48.46875 24.5625-66.660156-7.851562-3.296875-16.128906-5.34375-24.5625-6.707032v-46.632812c0-8.289062-6.710938-15-15-15s-15 6.710938-15 15v46.519531c-34.191406 6.96875-60 37.265625-60 73.480469 0 8.289062-6.710938 15-15 15s-15-6.710938-15-15c0-25.433594 9.457031-48.46875 24.5625-66.660156-12.460938-5.230469-25.773438-8.339844-39.5625-8.339844zm0 0"/></svg>